# xmcd
#
# Track frame offsets:
#	150
#	70206
#	105686
#	145566
#
# Disc length: 2264 seconds
#
# Revision: 1
# Processed by: cddbd v1.5.2PL0 Copyright (c) Steve Scherf et al.
# Submitted via: audiograbber 1.83.01
#
DISCID=3008d604
DTITLE=Grateful Dead - 78-05-14A Providence Civic Centre, Providence RI
DYEAR=1900
DGENRE=
TTITLE0=Not Fade Away
TTITLE1=Going Down The Road Feeling Bad
TTITLE2=Around and Around
TTITLE3=US Blues
EXTD=
EXTT0=
EXTT1=
EXTT2=
EXTT3=
PLAYORDER=
